<svg width="56" height="45" viewBox="0 0 56 45" fill="none" xmlns="http://www.w3.org/2000/svg">
<g clip-path="url(#clip0_66_665)">
<path d="M0.668456 44.9317C0.482724 44.9317 0.315738 44.8678 0.167153 44.7399C0.0557137 44.5694 0 44.3779 0 44.1648V0.967211C0 0.754207 0.0557137 0.583783 0.167153 0.455983C0.315738 0.28558 0.482724 0.200378 0.668456 0.200378H10.1934C13.3869 0.200378 15.9307 1.30809 17.8244 3.52329C19.7555 5.73847 20.7209 8.69923 20.7209 12.4056V32.7263C20.7209 36.4327 19.7555 39.3934 17.8244 41.6088C15.9307 43.8241 13.3869 44.9317 10.1934 44.9317H0.668456ZM6.46146 38.222C6.46146 38.4349 6.55431 38.5414 6.73985 38.5414L10.082 38.4775C11.3074 38.4775 12.2914 37.9238 13.0342 36.8161C13.8139 35.6658 14.2225 34.1536 14.2596 32.279V12.8529C14.2596 10.9359 13.8696 9.4235 13.0899 8.31583C12.3471 7.16572 11.326 6.59051 10.0262 6.59051H6.73985C6.55431 6.59051 6.46146 6.69713 6.46146 6.91005V38.222Z" fill="white"/>
<path d="M35.9132 44.9317C35.7275 44.9317 35.5605 44.8678 35.4119 44.7399C35.3005 44.5694 35.2448 44.3779 35.2448 44.1648V0.967211C35.2448 0.754207 35.3005 0.583783 35.4119 0.455983C35.5605 0.28558 35.7275 0.200378 35.9132 0.200378H45.4383C48.6315 0.200378 51.1754 1.30809 53.0692 3.52329C55.0002 5.73847 55.9655 8.69923 55.9655 12.4056V32.7263C55.9655 36.4327 55.0002 39.3934 53.0692 41.6088C51.1754 43.8241 48.6315 44.9317 45.4383 44.9317H35.9132ZM41.7063 38.222C41.7063 38.4349 41.7991 38.5414 41.9847 38.5414L45.3267 38.4775C46.5521 38.4775 47.5362 37.9238 48.279 36.8161C49.0587 35.6658 49.4672 34.1536 49.5044 32.279V12.8529C49.5044 10.9359 49.1144 9.4235 48.3347 8.31583C47.5918 7.16572 46.5709 6.59051 45.2711 6.59051H41.9847C41.7991 6.59051 41.7063 6.69713 41.7063 6.91005V38.222Z" fill="white"/>
<path d="M25.3398 44.9317C25.1541 44.9317 24.9871 44.8678 24.8385 44.7399C24.7271 44.5694 24.6713 44.3779 24.6713 44.1648V0.967211C24.6713 0.754207 24.7271 0.583783 24.8385 0.455983C24.9871 0.28558 25.1541 0.200378 25.3398 0.200378H30.4643C30.6499 0.200378 30.7985 0.28558 30.9099 0.455983C31.0585 0.583783 31.1326 0.754207 31.1326 0.967211V44.1648C31.1326 44.3779 31.0585 44.5694 30.9099 44.7399C30.7985 44.8678 30.6499 44.9317 30.4643 44.9317H25.3398Z" fill="white"/>
</g>
<defs>
<clipPath id="clip0_66_665">
<rect width="56" height="45" fill="white"/>
</clipPath>
</defs>
</svg>
